<svg version="1" xmlns="http://www.w3.org/2000/svg" width="533.333" height="533.333" viewBox="0 0 400.000000 400.000000"><path d="M83.5 108.9c-4.7 2.1-10.2 8-11.1 11.9-.3 1.5-.8 3.3-1 4-.2.7 0 3.2.6 5.6.8 3.7 76.6 145.8 82.3 154.4 1.3 1.8 4.5 4.4 7.5 5.9 16.8 8.2 33.8-8.7 26-25.9-4.6-10-80-149.3-82.2-151.7-5.1-5.7-14.8-7.6-22.1-4.2zM172 109.2c-2.4 1.3-5.7 4-7.4 6.1-2.5 3.1-3.1 4.9-3.4 10.3l-.4 6.4 40.7 75.8c22.4 41.6 42 77 43.4 78.6 10 11.1 28.5 7.2 33.1-7 2.8-8.4 3-8-40.4-88.4-22.4-41.5-41.7-76.6-42.9-77.9-5.5-6-15.2-7.7-22.7-3.9z"/></svg>