<svg version="1" xmlns="http://www.w3.org/2000/svg" width="533.333" height="533.333" viewBox="0 0 400.000000 400.000000"><path d="M127.2 106.9c-9.3 2.4-15.6 10.5-15.6 20.2.1 5.4 1.3 7.8 41.3 82 22.7 42 42 77.2 42.9 78.3 2.2 2.3 7.8 5.1 12 5.9 8.3 1.6 18.6-4.5 21.8-12.8 3.5-9.2 4.3-7.4-40-89.5-22.4-41.5-41.9-76.7-43.3-78.2-4.7-5-12.7-7.4-19.1-5.9zM216.2 107c-13.4 3.2-19 17.5-12.1 31.2 4.5 9 77.9 144.8 79.7 147.5 1.9 3 8.6 6.9 13.2 7.7 5.2.9 13-1.7 16.7-5.6 5-5.3 6.6-9.4 6.1-15.7-.4-5.2-3.6-11.6-40.5-80.1-22.1-41-41.8-76.4-43.8-78.7-2.6-3.1-5-4.7-8.7-5.8-5.6-1.6-5.8-1.6-10.6-.5zM304.8 108c-9.1 2.7-14.9 10.3-14.9 19.5 0 5.2.7 7 9 22.3 21.8 40.5 22.4 41.5 27.6 44.7 9.2 5.7 20.8 3.4 27-5.4 2.7-3.8 3-5.1 3-11.4v-7.2l-14.9-27c-8.1-14.9-16.2-28.5-17.9-30.3-1.9-1.9-5.1-3.8-8.1-4.7-5.5-1.7-6.8-1.7-10.8-.5zM95.1 155.1c-.5 1.3-12.5 32.1-26.6 68.4-14.2 36.3-26 66.8-26.3 67.7-.4 1.7.9 1.8 17.6 1.8h18l4.8-12.3c2.6-6.7 5.5-14.2 6.4-16.7l1.8-4.5 30.1-.3c16.5-.1 30.1-.5 30.1-.9 0-.3-3.5-7.3-7.7-15.4l-7.8-14.9-16.1-.2-16.2-.3 7-18.2 7-18.2-10.2-18.8c-5.6-10.3-10.4-19-10.6-19.2-.2-.2-.8.7-1.3 2z"/></svg>